<svg width="282" height="50" viewBox="0 0 282 50" fill="none" xmlns="http://www.w3.org/2000/svg">
    <path d="M12.5 4C12.4536 6.32082 12.1201 9.45471 11.4722 11.7222C11.1525 12.8413 7.45868 11.2996 6.80556 12.0833C6.11294 12.9145 9.85283 17.745 10.5 18.5C11.7068 19.908 12.8364 22.1682 14.5 23" stroke="black" stroke-width="3" stroke-linecap="round" name="rir"></path>
    <path d="M28.9408 4C28.9872 6.32082 29.3207 9.45471 29.9686 11.7222C30.2883 12.8413 33.9821 11.2996 34.6352 12.0833C35.3278 12.9145 31.588 17.745 30.9408 18.5C29.734 19.908 28.6043 22.1682 26.9408 23" stroke="black" stroke-width="3" stroke-linecap="round" name="jir"></path>
    <path d="M43.25 21.25C43.4846 19.4775 43.6603 17.6843 44.3611 16.0278C44.7483 15.1126 45.2142 13.9473 45.25 12.9444C45.3154 11.1136 50.0573 13.1442 50.9722 13.5C51.5101 13.7092 55.2216 15.3896 55.6111 14.9444C56.1258 14.3562 56.1131 11.4159 56.1944 10.6111C56.3234 9.33589 56.25 8.03117 56.25 6.75" stroke="black" stroke-width="3" stroke-linecap="round" name="pde"></path>
    <path d="M66.5 9C66.5 10.7585 66.25 12.4119 66.25 14.125C66.25 14.8966 66.2798 15.5766 66.0556 16.3056C65.5851 17.8344 67.9108 17.595 68.8611 17.8611C70.1079 18.2102 71.7153 18.5 73 18.5C74.8317 18.5 74.4075 22.0719 75.3056 23.1944C75.8455 23.8694 76.0428 24.7696 77.125 23.9722C78.188 23.1889 79.0838 21.8331 80.25 21.25" stroke="black" stroke-width="3" stroke-linecap="round" name="uwa"></path>
    <path d="M88.75 6.5C89.0019 8.10593 89.293 9.76986 89.5309 11.4412M89.5309 11.4412C89.7993 13.3275 90 15.2232 90 17.0556C90 19.5333 92.6307 15.7745 93.125 15.0972C94.1721 13.6623 95.5576 12.2818 96.4444 10.75C96.9517 9.87378 95.4543 10.2572 94.8333 10.3889C93.0872 10.7593 91.2348 10.8778 89.5309 11.4412ZM89.5309 11.4412C89.2571 11.5317 88.9872 11.6337 88.7222 11.75C88.008 12.0636 87.2664 12 86.5 12" stroke="black" stroke-width="3" stroke-linecap="round" name="ope"></path>
    <path d="M105 19C105 16.6709 105.425 14.3712 105.5 12.0556C105.53 11.1271 105.045 9.71558 106.25 9.75C107.774 9.79354 108.845 10.6654 110.25 11.0556C111.094 11.2899 111.701 11.9355 112.583 12C113.241 12.0481 113.079 12.8502 112.736 13.25C111.491 14.7022 110.398 16.212 108.625 17C107.316 17.582 105.826 18.0108 105 19.25" stroke="black" stroke-width="3" stroke-linecap="round" name="lwz"></path>
    <path d="M119.75 19.5C121.551 16.8982 123.949 14.7258 126.361 12.6944C126.96 12.1905 128.514 11.2082 128.75 10.5M124.75 14.5C125.876 16.1553 126.857 16.9053 128.444 18C128.923 18.3301 129.75 18.6853 129.75 19.25" stroke="black" stroke-width="3" stroke-linecap="round" name="kjw"></path>
    <path d="M140.25 12C141.659 10.2251 143.378 8.94195 145 7.5C145.815 6.77512 147.75 6.59198 147.75 5.25M144.25 3C144.77 3.67777 146.5 5.79008 146.5 6.75M142.75 10C143.524 11.3319 144.127 12.5084 144.514 13.8611C144.633 14.2766 144.921 15.8353 145.25 16M147.5 6.25H154.25" stroke="black" stroke-width="3" stroke-linecap="round" name="wrz"></path>
    <path d="M169 4C170.837 8.64767 170.5 13.0848 170.5 18M170.5 11.5C174.641 9.82387 175 7.56097 175 3.5M175.5 9C178.754 10.9842 179.592 13 183.5 13M172.5 11.5C169.297 13.375 163.029 17.0287 159.5 13.5M164 10.5C166.819 12.2192 169.265 13.6327 172 15" stroke="black" stroke-width="3" stroke-linecap="round" name="khw"></path>
    <path d="M194 20.5C197.924 18.2578 202.076 17.5 206.5 17.5M203.5 17.5C203.065 14.7269 202.034 10.4104 204.222 8.22222C204.677 7.76705 204.223 6.99873 204.611 6.61111C205.222 6.00011 206.092 6.3154 206.5 5.5M196 7C197.764 8.81781 200.614 12.5 203.5 12.5M196 20C196.371 17.7251 197.146 10 200.5 10" stroke="black" stroke-width="3" stroke-linecap="round" name="lpw"></path>
    <path d="M219.5 5.5C219.889 7.57701 220.417 9.03641 220.5 11.1111C220.549 12.328 221.777 13.055 222.389 14C223.412 15.5816 226.88 15 228.5 15M219 6C220.975 5.56657 222.73 4.5 224.75 4.5C225.855 4.5 226.641 4.07574 227 3M212.5 8.5C214.876 7.99075 216.141 7 218.5 7M217 20.5C219.549 18.5687 222.5 17.0657 222.5 13.5C222.5 10.7585 225 7.90556 225 5" stroke="black" stroke-width="3" stroke-linecap="round" name="jfw"></path>
    <path d="M240 7.28167C240.587 6.1304 243 3.77754 243 2.53167C243 1.39516 244.407 1.78167 245.25 1.78167C246.542 1.78167 248.605 7.59619 249 8.78167M248 8.28167C246.469 11.7685 242.163 14.2915 241 17.7817M242.5 14.2817C245.157 15.8369 249.24 17.1424 251 19.7817M239 7.28167C241.701 7.28167 244.468 7.43768 247 8.28167" stroke="black" stroke-width="3" stroke-linecap="round" name="woq"></path>
    <path d="M280.355 16.2499C279.202 16.9335 278.098 17.6868 276.54 17.8445C275.679 17.9317 274.61 18.0697 274.054 18.5534C273.041 19.4363 269.355 13.6466 268.625 12.5482C268.196 11.9023 265.357 7.3236 264.738 7.16499C263.919 6.95538 262.409 8.49106 261.91 8.82658C261.121 9.35822 260.519 10.1073 259.855 10.7709" stroke="black" stroke-width="3" stroke-linecap="round" name="ieq"></path>
    <path d="M270.094 33.4292C269.028 36.4085 267.274 39.1275 265.47 41.7139C265.022 42.3556 263.775 43.7067 263.73 44.4519M266.559 39.5529C265.043 38.2453 263.901 37.7749 262.084 37.1284C261.537 36.9334 260.646 36.8043 260.5 36.2588" stroke="black" stroke-width="3" stroke-linecap="round" name="brq"></path>
    <path d="M215.36 25.3199C215.074 27.7342 214.86 30.1767 214.007 32.433C213.535 33.6795 212.968 35.2668 212.924 36.6327C212.844 39.1265 207.068 36.3606 205.954 35.876C205.299 35.591 200.778 33.3022 200.304 33.9085C199.677 34.7098 199.692 38.7147 199.593 39.8108C199.436 41.5478 199.525 43.3249 199.525 45.0699" stroke="black" stroke-width="3" stroke-linecap="round" name="lrq"></path>
    <path d="M192.11 39.5699C192.11 37.8114 192.36 36.158 192.36 34.4449C192.36 33.6734 192.33 32.9933 192.555 32.2644C193.025 30.7355 190.699 30.9749 189.749 30.7088C188.502 30.3597 186.895 30.0699 185.61 30.0699C183.778 30.0699 184.203 26.4981 183.305 25.3755C182.765 24.7005 182.567 23.8003 181.485 24.5977C180.422 25.381 179.526 26.7368 178.36 27.3199" stroke="black" stroke-width="3" stroke-linecap="round" name="orq"></path>
    <path d="M169.86 42.0699C169.608 40.464 169.317 38.8001 169.079 37.1288M169.079 37.1288C168.811 35.2425 168.61 33.3467 168.61 31.5144C168.61 29.0367 165.979 32.7954 165.485 33.4727C164.438 34.9077 163.053 36.2882 162.166 37.8199C161.658 38.6962 163.156 38.3128 163.777 38.1811C165.523 37.8107 167.375 37.6921 169.079 37.1288ZM169.079 37.1288C169.353 37.0383 169.623 36.9363 169.888 36.8199C170.602 36.5064 171.344 36.5699 172.11 36.5699" stroke="black" stroke-width="3" stroke-linecap="round" name="uwp"></path>
    <path d="M118.36 36.5699C116.951 38.3448 115.232 39.628 113.61 41.0699C113.244 41.3953 112.653 41.6115 112.112 41.8724M112.112 41.8724C111.448 42.1927 110.86 42.5803 110.86 43.3199M112.112 41.8724C112.172 42.8548 113.849 44.9043 114.36 45.5699M112.112 41.8724C112.111 41.8546 112.11 41.8371 112.11 41.8199M115.86 38.5699C115.086 37.238 114.483 36.0616 114.096 34.7088C113.978 34.2934 113.69 32.7347 113.36 32.5699M111.11 42.3199L104.36 42.3199" stroke="black" stroke-width="3" stroke-linecap="round" name="eqd"></path>
    <path d="M89.6102 44.5699C88.4624 41.6667 88.1633 38.8455 88.1004 35.9387M88.1004 35.9387C88.0889 35.4046 88.0853 34.8675 88.0859 34.3265M88.1004 35.9387C87.3605 36.3386 86.6858 36.733 86.1102 37.0699M88.1004 35.9387C88.586 35.6763 89.0998 35.4116 89.6321 35.1592M88.0859 34.3265C88.0873 33.0986 88.1102 31.8505 88.1102 30.5699M88.0859 34.3265C88.6061 34.5998 89.1198 34.8767 89.6321 35.1592M88.0859 34.3265C87.601 34.0717 87.1104 33.82 86.6102 33.5699M88.1102 37.0699C83.9692 38.7461 83.6102 41.009 83.6102 45.0699M83.1102 39.5699C79.8561 37.5857 79.0183 35.5699 75.1102 35.5699M89.6321 35.1592C92.8022 33.6562 96.6319 32.5916 99.1102 35.0699M89.6321 35.1592C91.2532 36.053 92.8597 37.0025 94.6102 38.0699" stroke="black" stroke-width="3" stroke-linecap="round" name="hrj"></path>
    <path d="M39.1102 43.0699C39.0875 42.9488 39.0643 42.8297 39.0408 42.7125M39.0408 42.7125C38.6607 40.8206 38.1883 39.4125 38.1102 37.4588C38.0615 36.2419 36.8328 35.5149 36.2213 34.5699C36.1959 34.5307 36.169 34.4928 36.1407 34.4562M39.0408 42.7125C39.2288 42.6601 39.4185 42.612 39.6102 42.5699M39.0408 42.7125C37.2923 43.2004 35.6841 44.0699 33.8602 44.0699C32.7556 44.0699 31.9688 44.4942 31.6102 45.5699M36.1407 34.4562C35.027 33.0169 31.6898 33.5699 30.1102 33.5699M36.1407 34.4562C36.4591 31.3242 39.2122 29.8866 41.6102 28.0699M36.1407 34.4562C36.1206 34.6538 36.1102 34.8583 36.1102 35.0699C36.1102 37.8115 33.6102 40.6644 33.6102 43.5699M46.1102 40.0699C43.7337 40.5792 42.469 41.5699 40.1102 41.5699" stroke="black" stroke-width="3" stroke-linecap="round" name="krj"></path>
    <path d="M16 35C14.9963 36.7146 14.1112 38.5221 13.0738 40.0949M13.0738 40.0949C11.4255 42.5937 9.39271 44.5 5.88889 44.5C3.45139 44.5 3 43.3091 3 41C3 39.7862 1.8326 36.455 2.30555 36.5278C5.70846 37.0513 10.1241 38.2886 13.0738 40.0949ZM13.0738 40.0949C13.1426 40.137 13.2106 40.1795 13.2778 40.2222C16.7434 42.4276 16.5 38.3457 16.5 36.2778C16.5 34.844 17.0118 32.1544 16.4722 30.8056C16.4583 30.7707 10.7235 31 10 31" stroke="black" stroke-width="3" stroke-linecap="round" name="ghe"></path>
    <path d="M153.61 29.5699C153.61 31.899 153.185 34.1987 153.11 36.5144C153.08 37.4428 153.565 38.8544 152.36 38.8199C150.836 38.7764 149.765 37.9046 148.36 37.5144C147.516 37.28 146.909 36.6345 146.027 36.5699C145.37 36.5218 145.531 35.7197 145.874 35.3199C147.119 33.8678 148.212 32.3579 149.985 31.5699C151.295 30.988 152.784 30.5592 153.61 29.3199M148.5 39C148.061 41.3403 146.5 43.6513 146.5 46" stroke="black" stroke-width="3" stroke-linecap="round" name="frp"></path>
    <path d="M224.5 30V43M224.5 36.5C226.973 35.4491 228.757 33.6213 231 32.5M223 31C225.609 30.574 225.615 30.3076 227.25 29C227.863 28.5099 228.355 27.8224 229 27.5M219.5 44.5H224" stroke="black" stroke-width="3" stroke-linecap="round" name="gwp"></path>
    <path d="M240 27C241.461 28.2055 243.582 31.2908 245 32M245 32.5C244.987 32.5307 241.411 39.5575 240.611 38.2778C239.997 37.2955 239.109 36.4952 238.611 35.5C238.083 34.4448 237.165 34.4982 236.5 33.5M241 40.5C241.291 41.8276 242.563 46.3924 244.5 46.5C246.542 46.6134 248.45 46 250.5 46" stroke="black" stroke-width="3" stroke-linecap="round" name="nwg"></path>
    <path d="M55.5 29V39M55.5 39V40.75C55.5 42.9514 55.3762 45.1757 56.7778 41.9722C56.9396 41.6023 57.1486 41.1643 57.3969 40.6861M55.5 39C55.9797 39.7196 56.6724 40.2218 57.3969 40.6861M57.3969 40.6861C59.3496 36.9249 63.7348 30.6756 66.75 35.5C68.3851 38.1162 69.4915 46.5 65 46.5C64.0539 46.5 63.467 46.4114 62.7778 45.7222C62.4743 45.4187 62.6432 44.8141 62.2778 44.6111C61.4631 44.1585 60.8162 44.36 60.3889 43.3889C59.815 42.0846 58.5647 41.4345 57.3969 40.6861Z" stroke="black" stroke-width="3" stroke-linecap="round" name="jwg"></path>
    <path d="M128.5 31C129.656 31.6768 130.863 32.0426 132 32.6111C132.787 33.0048 132.984 34.1042 133.75 34.4444C134.378 34.7238 136.723 34.4057 136.972 35.2778C137.857 38.3743 133.607 41.6152 131.722 43.5C130.952 44.27 130.5 44.6219 130.5 45.75C130.5 47.2369 128.698 46.0156 128.528 45.25C128.362 44.5038 123.776 40.5 123 40.5M133.5 41C135.102 43.2696 136.399 46.6997 139 48" stroke="black" stroke-width="3" stroke-linecap="round" name="zrd"></path>
</svg>